<svg width="40" height="40" fill="none" xmlns="http://www.w3.org/2000/svg"><g clip-path="url(#clip0_1_76)" fill="#FC195A"><path d="M38.828 0h-4.766a1.17 1.17 0 00-1.171 1.172v1.172H23.3A3.51 3.51 0 0020 0a3.51 3.51 0 00-3.3 2.344H7.11V1.172C7.11.524 6.584 0 5.936 0H1.173C.524 0 0 .524 0 1.172v4.687c0 .648.524 1.172 1.172 1.172h4.766a1.17 1.17 0 001.171-1.172V4.672h4.813c-4.067 2.54-6.748 7.003-7.069 12.001-1.406.46-2.431 1.77-2.431 3.327a3.52 3.52 0 003.515 3.516A3.52 3.52 0 009.454 20a3.513 3.513 0 00-2.26-3.274c.399-5.572 4.287-10.269 9.696-11.609a3.504 3.504 0 003.111 1.914 3.504 3.504 0 003.111-1.914c5.409 1.34 9.297 6.037 9.697 11.609A3.514 3.514 0 0030.547 20a3.52 3.52 0 003.515 3.516A3.52 3.52 0 0037.578 20c0-1.558-1.025-2.867-2.431-3.327-.32-4.998-3.002-9.445-7.07-11.985h4.814v1.171c0 .648.524 1.172 1.172 1.172h4.765c.648 0 1.172-.524 1.172-1.172V1.172C40 .524 39.476 0 38.828 0zM27.973 38.547c-.613-1.876-2.38-3.313-4.457-3.313h-7.032c-2.078 0-3.844 1.437-4.457 3.313-.236.723.38 1.453 1.14 1.453h13.666c.76 0 1.376-.73 1.14-1.453z"/><path d="M30.35 24.038L21.172 10.27v11.118a3.51 3.51 0 012.344 3.3A3.52 3.52 0 0120 28.203a3.52 3.52 0 01-3.516-3.515 3.51 3.51 0 012.344-3.3V10.27L9.65 24.038a1.172 1.172 0 00.146 1.478c2.152 2.152 3.527 4.923 4.058 7.896.814-.33 1.7-.521 2.63-.521h7.032c.93 0 1.816.19 2.63.52.531-2.972 1.906-5.744 4.057-7.895a1.171 1.171 0 00.147-1.478z"/><path d="M20 23.516a1.173 1.173 0 10.002 2.345A1.173 1.173 0 0020 23.516z"/></g><defs><clipPath id="clip0_1_76"><rect width="40" height="40" rx="10" fill="#fff"/></clipPath></defs></svg>