<svg width="40" height="40" fill="none" xmlns="http://www.w3.org/2000/svg"><g clip-path="url(#clip0_1_27)" fill="#FC195A"><path d="M10.885 9.228L7.57 5.913a1.172 1.172 0 10-1.658 1.658l3.315 3.314a1.171 1.171 0 101.657-1.657zm-4.947 9.6H1.171a1.171 1.171 0 100 2.344h4.766a1.171 1.171 0 100-2.344zm32.89 0h-4.766a1.171 1.171 0 100 2.344h4.766a1.171 1.171 0 100-2.344zM34.087 5.913a1.172 1.172 0 00-1.658 0l-3.314 3.315a1.172 1.172 0 101.657 1.657l3.315-3.314c.457-.458.457-1.2 0-1.658zM20 0c-.648 0-1.172.524-1.172 1.172v4.766a1.171 1.171 0 102.344 0V1.171A1.17 1.17 0 0020 0zm6.563 11.726c-2.555-2.015-5.86-2.742-9.094-1.968-3.75.867-6.774 3.844-7.688 7.57-.914 3.75.14 7.547 2.836 10.195.961.961 1.524 2.47 1.524 4.016v.258a1.16 1.16 0 001.171 1.172h9.376a1.16 1.16 0 001.171-1.172v-.258c0-1.524.586-3.078 1.618-4.086A10.554 10.554 0 0030.547 20c0-3.234-1.453-6.258-3.985-8.274zM20 16.485c-1.768 0-3.055 1.173-3.392 2.53a1.172 1.172 0 01-2.275-.562c.58-2.344 2.782-4.311 5.667-4.311a1.171 1.171 0 110 2.343zm-4.687 18.828v1.171A3.52 3.52 0 0018.828 40h2.344a3.52 3.52 0 003.515-3.516v-1.172h-9.375z"/></g><defs><clipPath id="clip0_1_27"><rect width="40" height="40" rx="10" fill="#fff"/></clipPath></defs></svg>