<svg width="40" height="40" fill="none" xmlns="http://www.w3.org/2000/svg"><g clip-path="url(#clip0_1_61)" fill="#fff"><path d="M20 8.594A4.297 4.297 0 1020 0a4.297 4.297 0 000 8.594zm-7.727 23.825a6.622 6.622 0 01-4.851 2.112A6.622 6.622 0 012.57 32.42 5.858 5.858 0 000 37.266v1.562C0 39.475.525 40 1.172 40h12.5c.647 0 1.172-.525 1.172-1.172v-1.562a5.857 5.857 0 00-2.571-4.847zm25.157 0a6.622 6.622 0 01-4.852 2.112 6.622 6.622 0 01-4.85-2.112 5.857 5.857 0 00-2.572 4.847v1.562c0 .647.525 1.172 1.172 1.172h12.5c.647 0 1.172-.525 1.172-1.172v-1.562a5.857 5.857 0 00-2.57-4.847zm-9.092-3.837a4.303 4.303 0 004.24 3.605 4.302 4.302 0 004.297-4.296 4.302 4.302 0 00-4.297-4.297 4.303 4.303 0 00-3.957 2.622l-5.109-1.587a3.522 3.522 0 00-2.34-3.177v-5.046h5.078c.647 0 1.172-.524 1.172-1.172v-1.562a5.857 5.857 0 00-2.571-4.847 6.622 6.622 0 01-9.702 0 5.857 5.857 0 00-2.57 4.847v1.562a1.17 1.17 0 001.171 1.172h5.078v5.046a3.522 3.522 0 00-2.34 3.177l-5.11 1.587a4.303 4.303 0 00-3.956-2.622 4.302 4.302 0 00-4.297 4.297 4.302 4.302 0 004.297 4.297 4.303 4.303 0 004.24-3.606l5.521-1.715a3.513 3.513 0 005.634 0l5.52 1.715z"/></g><defs><clipPath id="clip0_1_61"><rect width="40" height="40" rx="10" fill="#fff"/></clipPath></defs></svg>