<svg width="40" height="40" fill="none" xmlns="http://www.w3.org/2000/svg"><g clip-path="url(#clip0_1_98)" fill="#FC195A"><path d="M38.828 37.656H2.344V1.172a1.171 1.171 0 10-2.344 0v37.656C0 39.476.524 40 1.172 40h37.656a1.171 1.171 0 100-2.344z"/><path d="M5.86 35.313h4.765c.648 0 1.172-.525 1.172-1.172v-7.11c0-.647-.524-1.172-1.172-1.172H5.859a1.17 1.17 0 00-1.171 1.172v7.11c0 .647.524 1.172 1.171 1.172zm9.453-14.141c-.648 0-1.172.524-1.172 1.172V34.14c0 .647.524 1.172 1.171 1.172H20c.648 0 1.172-.525 1.172-1.172V22.344c0-.648-.524-1.172-1.172-1.172h-4.688zm9.375-4.688c-.648 0-1.172.524-1.172 1.172v16.485c0 .647.524 1.172 1.172 1.172h4.687c.648 0 1.172-.525 1.172-1.172V17.656c0-.647-.524-1.172-1.172-1.172h-4.688zm14.14-4.687h-4.766a1.17 1.17 0 00-1.171 1.172V34.14c0 .647.524 1.172 1.172 1.172h4.765c.648 0 1.172-.525 1.172-1.172V12.969c0-.648-.524-1.172-1.172-1.172zM4.827 20.555c.31.575 1.024.78 1.587.477L33.702 6.381l-.688 1.376a1.172 1.172 0 102.097 1.048l2.344-4.687a1.172 1.172 0 00-1.048-1.696h-5.86a1.171 1.171 0 100 2.344h1.21L5.305 18.968a1.173 1.173 0 00-.477 1.587z"/></g><defs><clipPath id="clip0_1_98"><rect width="40" height="40" rx="10" fill="#fff"/></clipPath></defs></svg>