<?xml version="1.0" encoding="utf-8"?><svg viewBox="0 0 275 40" xmlns="http://www.w3.org/2000/svg" xmlns:xlink="http://www.w3.org/1999/xlink"><style>:root>svg{display:none}:root>svg:target{display:block}</style><svg viewBox="0 0 40 40" id="card-1" xmlns="http://www.w3.org/2000/svg"><g clip-path="url(#aa)"><path d="M38.828 37.656H2.344V1.172a1.171 1.171 0 10-2.344 0v37.656C0 39.476.524 40 1.172 40h37.656a1.171 1.171 0 100-2.344z"/><path d="M5.86 35.313h4.765c.648 0 1.172-.525 1.172-1.172v-7.11c0-.647-.524-1.172-1.172-1.172H5.859a1.17 1.17 0 00-1.171 1.172v7.11c0 .647.524 1.172 1.171 1.172zm9.453-14.141c-.648 0-1.172.524-1.172 1.172V34.14c0 .647.524 1.172 1.171 1.172H20c.648 0 1.172-.525 1.172-1.172V22.344c0-.648-.524-1.172-1.172-1.172h-4.688zm9.375-4.688c-.648 0-1.172.524-1.172 1.172v16.485c0 .647.524 1.172 1.172 1.172h4.687c.648 0 1.172-.525 1.172-1.172V17.656c0-.647-.524-1.172-1.172-1.172h-4.688zm14.14-4.687h-4.766a1.17 1.17 0 00-1.171 1.172V34.14c0 .647.524 1.172 1.172 1.172h4.765c.648 0 1.172-.525 1.172-1.172V12.969c0-.648-.524-1.172-1.172-1.172zM4.827 20.555c.31.575 1.024.78 1.587.477L33.702 6.381l-.688 1.376a1.172 1.172 0 102.097 1.048l2.344-4.687a1.172 1.172 0 00-1.048-1.696h-5.86a1.171 1.171 0 100 2.344h1.21L5.305 18.968a1.173 1.173 0 00-.477 1.587z"/></g><defs><clipPath id="aa"><rect width="40" height="40" rx="10"/></clipPath></defs></svg><svg viewBox="0 0 40 40" id="card-2" xmlns="http://www.w3.org/2000/svg"><g clip-path="url(#ba)"><path d="M20 8.594A4.297 4.297 0 1020 0a4.297 4.297 0 000 8.594zm-7.727 23.825a6.622 6.622 0 01-4.851 2.112A6.622 6.622 0 012.57 32.42 5.858 5.858 0 000 37.266v1.562C0 39.475.525 40 1.172 40h12.5c.647 0 1.172-.525 1.172-1.172v-1.562a5.857 5.857 0 00-2.571-4.847zm25.157 0a6.622 6.622 0 01-4.852 2.112 6.622 6.622 0 01-4.85-2.112 5.857 5.857 0 00-2.572 4.847v1.562c0 .647.525 1.172 1.172 1.172h12.5c.647 0 1.172-.525 1.172-1.172v-1.562a5.857 5.857 0 00-2.57-4.847zm-9.092-3.837a4.303 4.303 0 004.24 3.605 4.302 4.302 0 004.297-4.296 4.302 4.302 0 00-4.297-4.297 4.303 4.303 0 00-3.957 2.622l-5.109-1.587a3.522 3.522 0 00-2.34-3.177v-5.046h5.078c.647 0 1.172-.524 1.172-1.172v-1.562a5.857 5.857 0 00-2.571-4.847 6.622 6.622 0 01-9.702 0 5.857 5.857 0 00-2.57 4.847v1.562a1.17 1.17 0 001.171 1.172h5.078v5.046a3.522 3.522 0 00-2.34 3.177l-5.11 1.587a4.303 4.303 0 00-3.956-2.622 4.302 4.302 0 00-4.297 4.297 4.302 4.302 0 004.297 4.297 4.303 4.303 0 004.24-3.606l5.521-1.715a3.513 3.513 0 005.634 0l5.52 1.715z"/></g><defs><clipPath id="ba"><rect width="40" height="40" rx="10"/></clipPath></defs></svg><svg viewBox="0 0 40 40" id="card-3" xmlns="http://www.w3.org/2000/svg"><g clip-path="url(#ca)"><path d="M38.828 0h-4.766a1.17 1.17 0 00-1.171 1.172v1.172H23.3A3.51 3.51 0 0020 0a3.51 3.51 0 00-3.3 2.344H7.11V1.172C7.11.524 6.584 0 5.936 0H1.173C.524 0 0 .524 0 1.172v4.687c0 .648.524 1.172 1.172 1.172h4.766a1.17 1.17 0 001.171-1.172V4.672h4.813c-4.067 2.54-6.748 7.003-7.069 12.001-1.406.46-2.431 1.77-2.431 3.327a3.52 3.52 0 003.515 3.516A3.52 3.52 0 009.454 20a3.513 3.513 0 00-2.26-3.274c.399-5.572 4.287-10.269 9.696-11.609a3.504 3.504 0 003.111 1.914 3.504 3.504 0 003.111-1.914c5.409 1.34 9.297 6.037 9.697 11.609A3.514 3.514 0 0030.547 20a3.52 3.52 0 003.515 3.516A3.52 3.52 0 0037.578 20c0-1.558-1.025-2.867-2.431-3.327-.32-4.998-3.002-9.445-7.07-11.985h4.814v1.171c0 .648.524 1.172 1.172 1.172h4.765c.648 0 1.172-.524 1.172-1.172V1.172C40 .524 39.476 0 38.828 0zM27.973 38.547c-.613-1.876-2.38-3.313-4.457-3.313h-7.032c-2.078 0-3.844 1.437-4.457 3.313-.236.723.38 1.453 1.14 1.453h13.666c.76 0 1.376-.73 1.14-1.453z"/><path d="M30.35 24.038L21.172 10.27v11.118a3.51 3.51 0 012.344 3.3A3.52 3.52 0 0120 28.203a3.52 3.52 0 01-3.516-3.515 3.51 3.51 0 012.344-3.3V10.27L9.65 24.038a1.172 1.172 0 00.146 1.478c2.152 2.152 3.527 4.923 4.058 7.896.814-.33 1.7-.521 2.63-.521h7.032c.93 0 1.816.19 2.63.52.531-2.972 1.906-5.744 4.057-7.895a1.171 1.171 0 00.147-1.478z"/><path d="M20 23.516a1.173 1.173 0 10.002 2.345A1.173 1.173 0 0020 23.516z"/></g><defs><clipPath id="ca"><rect width="40" height="40" rx="10"/></clipPath></defs></svg><svg viewBox="0 0 40 40" id="card-4" xmlns="http://www.w3.org/2000/svg"><g clip-path="url(#da)"><path d="M10.885 9.228L7.57 5.913a1.172 1.172 0 10-1.658 1.658l3.315 3.314a1.171 1.171 0 101.657-1.657zm-4.947 9.6H1.171a1.171 1.171 0 100 2.344h4.766a1.171 1.171 0 100-2.344zm32.89 0h-4.766a1.171 1.171 0 100 2.344h4.766a1.171 1.171 0 100-2.344zM34.087 5.913a1.172 1.172 0 00-1.658 0l-3.314 3.315a1.172 1.172 0 101.657 1.657l3.315-3.314c.457-.458.457-1.2 0-1.658zM20 0c-.648 0-1.172.524-1.172 1.172v4.766a1.171 1.171 0 102.344 0V1.171A1.17 1.17 0 0020 0zm6.563 11.726c-2.555-2.015-5.86-2.742-9.094-1.968-3.75.867-6.774 3.844-7.688 7.57-.914 3.75.14 7.547 2.836 10.195.961.961 1.524 2.47 1.524 4.016v.258a1.16 1.16 0 001.171 1.172h9.376a1.16 1.16 0 001.171-1.172v-.258c0-1.524.586-3.078 1.618-4.086A10.554 10.554 0 0030.547 20c0-3.234-1.453-6.258-3.985-8.274zM20 16.485c-1.768 0-3.055 1.173-3.392 2.53a1.172 1.172 0 01-2.275-.562c.58-2.344 2.782-4.311 5.667-4.311a1.171 1.171 0 110 2.343zm-4.687 18.828v1.171A3.52 3.52 0 0018.828 40h2.344a3.52 3.52 0 003.515-3.516v-1.172h-9.375z"/></g><defs><clipPath id="da"><rect width="40" height="40" rx="10"/></clipPath></defs></svg><svg viewBox="0 0 16 8" id="card-arrow" xmlns="http://www.w3.org/2000/svg"><path d="M15.354 4.354a.5.5 0 000-.708L12.172.464a.5.5 0 10-.708.708L14.293 4l-2.829 2.828a.5.5 0 10.708.708l3.182-3.182zM0 4.5h15v-1H0v1z"/></svg><svg viewBox="0 0 16 17" id="decor-1" xmlns="http://www.w3.org/2000/svg"><circle cx="8" cy="8.011" r="8"/></svg><svg viewBox="0 0 16 17" id="decor-2" xmlns="http://www.w3.org/2000/svg"><circle cx="8" cy="8.011" r="8"/></svg><svg viewBox="0 0 275 20" id="mainTitleDecor" xmlns="http://www.w3.org/2000/svg"><path d="M2.769 7.42a2.5 2.5 0 10.462 4.978L2.77 7.42zm267.769 11.107l2.357.835 1.669-4.713-2.356-.835-1.67 4.713zM3.231 12.398c32.313-3.001 84.485-6.69 135.971-7.001 51.615-.313 102.112 2.777 131.336 13.13l1.67-4.713C242.051 3.13 190.719.084 139.172.397 87.496.71 35.172 4.41 2.769 7.42l.462 4.978z"/></svg></svg>